<?xml version="1.0" encoding="utf-8"?>
<!-- Generator: Adobe Illustrator 24.2.3, SVG Export Plug-In . SVG Version: 6.00 Build 0)  -->
<svg version="1.1" id="Layer_1" xmlns="http://www.w3.org/2000/svg" xmlns:xlink="http://www.w3.org/1999/xlink" x="0px" y="0px"
	 viewBox="0 0 330 400" style="enable-background:new 0 0 330 400;" xml:space="preserve">
<style type="text/css">
	.st0{fill:#96FBC4;}
	.st1{fill:#FFFFFF;}
</style>
<polygon class="st0" points="55,340 42.4,255.7 70,261.7 96,255.7 132.4,275.6 165.1,281.4 192.1,276.9 233.7,254.1 255.9,260.4 
	279.7,260.4 288.2,254.1 270.8,358.7 207.4,370.8 150.1,373.4 105.9,369.5 61.5,361.6 "/>
<path class="st1" d="M114.5,125c6,4,1,15-8,9s-10.8-7.5-10.8-7.5c-9-5.3-17.9-5.6-26.7-0.4c-9.6,5.6-14.6,14.1-14.6,25.3
	c0,6,2,11.4,5.3,16.3c3.7,5.5,2.7,8.4-3.5,10.8c-1.2,0.5-2.4,0.9-3.6,1.4C32.3,188,22.8,214.8,33,234.1
	c11.4,21.9,38.7,28.2,57.8,15.2c5.2-3.5,6.3-2.9,11.3,1c6.5,5.2,13,10.7,20.3,14.6c35.4,18.5,76.1,12.7,105.4-14.2
	c5.2-4.7,6.1-4.8,12.1-1.1c13.5,8.4,27.5,8.9,41.3,1.1c14.3-8.2,21.2-21.1,19.9-37.5c-1.2-15.5-26.2-33.2-27-32.5
	c0,0-25.6,22.3-31.6,19.3s-4.7-9.4-1.4-10.2c3.4-0.8,15.7-7,25.9-19.1c11-12.9,11.5-27.3,1-39c-7.1-7.9-16.1-10.7-26.5-8.8
	c-3.1,0.6-6.1,1.4-8.8-1.2c-5.8-5.7-13-9.4-20.6-12.1c-10.2-3.6-20.5-6.7-30.7-10.2c-14.8-5-24.2-20.4-21.3-35.7
	c0.9-5,9.6-24.5,11.3-29.7c-7-1-19,7-30.6,12.5C113.7,59.4,90,80.3,96.5,109.6c0.9,3.9,2.8,6.2,6.1,8.1
	C102.7,117.7,108.5,121,114.5,125z"/>
<g id="ULkYWe.tif">
	<g>
		<path d="M147.6,377.9c-5.3-0.4-10.6-0.9-15.9-1.2c-24.5-1.5-48.7-5.3-72.7-10.6c-3.7-0.8-5.6-2.8-6.1-6.5
			c-3.5-25.3-7.1-36.6-10.7-61.9c-1.9-13.3-3.7-26.7-5.7-40c-0.2-1.2-1.2-2.5-2.1-3.4C8.1,230,13.3,188.7,44.7,171.4
			c0.9-0.5,1.8-1.1,2.9-1.7c-6.6-13.8-6.3-27.4,1.9-40.2c8.2-12.7,20.4-18.4,35.2-18.2c0-6.8-0.4-13.2,0.1-19.7
			c2.2-28.3,29.3-43.9,54.8-56.3c14.8-7.2,28.7-17.5,40.5-11.6c5.6,2.8,4.4,5.4,1.4,10.8c-6,10.5-11.9,30.2-10.2,38.5
			c1.7,8.2,6.7,13.5,14.7,16.2c11.1,3.7,22.4,7,33.2,11.3c6.3,2.5,11.8,6.8,17.8,10.1c1.3,0.7,3,1.1,4.4,0.9
			c24.8-3,46.2,15.9,45.4,40.7c-0.2,5.9-2.2,11.7-3.4,17.2c4.8,3.9,10.4,7.5,15,12.2c19.7,20.2,18.4,53.2-2.3,72.3
			c-1.4,1.3-2.5,3.4-2.8,5.2c-5.5,38.1-10.8,62.1-16.2,100.2c-0.7,4.7-1.9,5.9-6.5,6.9c-27.9,6.3-56.2,10.2-84.9,11.3
			c-1.1,0-2.3,0.4-3.4,0.5C170.9,377.9,159.3,377.9,147.6,377.9z M114.5,125c6,4,1,15-8,9s-10.8-7.5-10.8-7.5
			c-9-5.3-17.9-5.6-26.7-0.4c-9.6,5.6-14.6,14.1-14.6,25.3c0,6,2,11.4,5.3,16.3c3.7,5.5,2.7,8.4-3.5,10.8c-1.2,0.5-2.4,0.9-3.6,1.4
			C32.3,188,22.8,214.8,33,234.1c11.4,21.9,38.7,28.2,57.8,15.2c5.2-3.5,6.3-2.9,11.3,1c6.5,5.2,13,10.7,20.3,14.6
			c35.4,18.5,76.1,12.7,105.4-14.2c5.2-4.7,6.1-4.8,12.1-1.1c13.5,8.4,27.5,8.9,41.3,1.1c14.3-8.2,21.2-21.1,19.9-37.5
			c-1.2-15.5-26.2-33.2-27-32.5c0,0-25.6,22.3-31.6,19.3s-4.7-9.4-1.4-10.2c3.4-0.8,15.7-7,25.9-19.1c11-12.9,11.5-27.3,1-39
			c-7.1-7.9-16.1-10.7-26.5-8.8c-3.1,0.6-6.1,1.4-8.8-1.2c-5.8-5.7-13-9.4-20.6-12.1c-10.2-3.6-20.5-6.7-30.7-10.2
			c-14.8-5-24.2-20.4-21.3-35.7c0.9-5,9.6-24.5,11.3-29.7c-7-1-19,7-30.6,12.5C113.7,59.4,90,80.3,96.5,109.6
			c0.9,3.9,2.8,6.2,6.1,8.1C102.7,117.7,108.5,121,114.5,125z M105.9,362.9c-0.1-2.7-0.2-4.8-0.3-6.8c-1.8-26.9-3.6-39.8-5.4-66.7
			c-0.6-8.3-1-16.7-1.7-25c-0.3-3.9-2.2-4.9-5.5-3.3c-3.6,1.7-7.2,3.2-10.9,4.4c-2.1,0.7-2.7,1.3-2.4,3.6c1.8,17.7,3.5,35.4,5.3,53
			c1.6,16.6,3.3,19.3,5,35.9c0.1,1.1,1.2,2.8,2.1,2.9C96.4,361.7,100.9,362.2,105.9,362.9z M224.2,362.9c4.5-0.6,8.5-1.4,12.6-1.7
			c2.5-0.2,3.3-1.2,3.6-3.6c3.3-34.3,6.7-54.7,10.2-89c0.2-1.9-0.3-2.5-2.1-3.1c-3.7-1.2-7.4-2.7-11-4.3c-3.6-1.7-5.4-0.9-5.8,3.2
			c-0.5,5.1-0.7,10.2-1,15.3c-1.5,23.1-3.1,32.1-4.6,55.2C225.4,344,224.9,353.1,224.2,362.9z M78.6,358.6c-0.1-1.8-0.2-3.2-0.3-4.5
			c-2-20.3-4-26.7-6.1-47c-1.2-12.3-2.4-24.5-3.7-36.8c-0.1-1-0.9-2.7-1.6-2.9c-5.9-1.2-11.9-2.2-18-3.2c0,0.2,0,0.7,0.1,1.1
			c2.5,17.7,4.9,35.4,7.4,53.1c2.2,16,4.5,18,6.8,33.9c0.2,1.2,0.9,3,1.7,3.3C69.4,356.9,73.8,357.6,78.6,358.6z M110.2,271.4
			c0,0.7,0,1.2,0,1.6c1.3,20,2.7,26.1,4,46.1c0.9,14.1,1.8,28.3,2.9,42.4c0.1,0.9,0.8,2.6,1.4,2.6c4.7,0.6,9.3,0.9,13.8,1.2
			c0-5.2,0.1-9.8,0-14.4c-0.9-27.4-1.8-40.8-2.8-68.2c0-1-0.5-2.5-1.2-2.8C122.4,277.1,116.4,274.4,110.2,271.4z M197.7,365.5
			c4.5-0.4,8.9-0.6,13.3-1.1c0.8-0.1,1.9-1.5,2-2.5c0.5-4.1,0.6-8.3,0.9-12.5c1.5-23.1,3.1-32.1,4.6-55.2c0.5-7.6,1-15.1,1.4-22.8
			c-5.5,2.7-10.7,5.3-16,7.6c-2.4,1-3.4,2.2-3.5,5c-0.8,28.9-1.8,43.8-2.8,72.7C197.6,359.4,197.7,362.2,197.7,365.5z M281.3,264
			c-5.3,1.1-10.2,2.5-15.1,2.9c-3.5,0.3-4.6,1.4-4.9,4.9c-2.6,27.5-5.4,41-8.1,68.6c-0.6,6-1.1,12-1.7,18.3
			c4.1-0.8,7.7-1.8,11.4-2.2c2.8-0.4,3.8-1.6,4.1-4.4c3-22.3,6.2-30.6,9.4-52.9C278.1,287.4,279.7,275.6,281.3,264z M159.3,366.3
			c0-31.2,0-48.3,0-79.5c-6.2-0.9-12.2-1.7-18.4-2.6c1.1,32.2,2.1,49.9,3.2,82.1C149.3,366.3,154.1,366.3,159.3,366.3z M171,286.8
			c0,31.4,0,48.6,0,80c5.2-0.2,10.1-0.4,15.2-0.7c1.1-32.2,2.1-50,3.2-81.9C183,285.1,177.1,285.9,171,286.8z"/>
	</g>
</g>
<g>
	<path d="M124.4,140c-3.8,0-6.9,0.3-9.1,0.7c-2.4,0.5-4.2,1.7-5.3,3.4c-1.1,1.7-1.7,4-2,7.2c-0.3,3-0.4,7-0.4,12v13.9
		c0,3.9-0.2,7-0.5,9.1c-0.3,1.9-0.8,3.2-1.5,3.9c-0.7,0.7-1.8,1-3.4,1c-0.6,0-1,0.4-1,1v6.2c0,0.6,0.4,1,1,1c1.6,0,2.7,0.3,3.4,1
		c0.7,0.7,1.2,1.9,1.5,3.8c0.3,2,0.5,5.1,0.5,9.1v14.3c0,5,0.1,9,0.4,12c0.3,3.2,0.9,5.5,2,7.2c1.1,1.7,2.9,2.9,5.3,3.5
		c2.2,0.5,5.3,0.8,9.1,0.8c0.6,0,1-0.4,1-1v-6.2c0-0.6-0.4-1-1-1c-1.8,0-3.1-0.1-4.1-0.4c-0.7-0.2-1.2-0.6-1.5-1.4
		c-0.4-0.9-0.6-2.4-0.7-4.5c-0.1-2.2-0.1-5.2-0.1-9v-16c0-5.8-0.5-9.9-1.6-12.4c-0.8-1.8-1.9-3.1-3.4-4c1.5-0.9,2.6-2.3,3.4-4.1
		c1.1-2.5,1.6-6.5,1.6-12.2v-15.7c0-3.8,0-6.8,0.1-8.9c0.1-2,0.3-3.6,0.7-4.5c0.3-0.8,0.8-1.2,1.6-1.4c0.9-0.3,2.3-0.4,4.1-0.4
		c0.6,0,1-0.4,1-1V141C125.4,140.4,124.9,140,124.4,140z"/>
	<path d="M153.9,191.3c2-2.8,3-6.4,3-10.9v-10.8c0-4.5-1-8.1-3-10.8c-2.1-2.7-5.6-4.1-10.6-4.1c-5,0-8.6,1.4-10.7,4.2
		c-2,2.7-3,6.4-3,10.9v10.4c0,4.4,1,8.1,3.1,11c2.1,2.9,5.7,4.4,10.6,4.4C148.3,195.6,151.8,194.1,153.9,191.3z M138.6,169.6
		c0-2.4,0.4-4.3,1-5.8c0.6-1.3,1.8-1.9,3.7-1.9c1.9,0,3.1,0.6,3.7,1.8c0.7,1.5,1.1,3.4,1.1,5.7v11c0,1.6-0.2,3-0.5,4.3
		c-0.3,1.2-0.8,2.1-1.5,2.7c-0.6,0.6-1.6,0.9-2.8,0.9s-2.2-0.3-2.8-0.9c-0.7-0.6-1.2-1.5-1.5-2.7c-0.3-1.2-0.5-2.7-0.5-4.3V169.6z"
		/>
	<path d="M185.3,192.5c-4.9,0-8.5,1.4-10.6,4.2c-2,2.7-3,6.4-3,10.9V218c0,4.5,1,8.2,3,11c2.1,2.9,5.6,4.4,10.6,4.4
		c5,0,8.6-1.4,10.7-4.3c2-2.7,3-6.4,3-10.9v-10.7c0-4.6-1-8.2-3.1-10.9C193.8,193.9,190.2,192.5,185.3,192.5z M180.5,207.3
		c0-2.4,0.4-4.3,1-5.8c0.6-1.3,1.8-1.9,3.7-1.9c1.9,0,3.2,0.6,3.7,1.9c0.7,1.5,1,3.4,1,5.8v11c0,1.6-0.1,3-0.4,4.2
		c-0.3,1.1-0.7,2-1.5,2.7c-0.7,0.6-1.6,0.9-2.9,0.9c-1.3,0-2.2-0.3-2.8-0.9c-0.7-0.7-1.2-1.6-1.5-2.7c-0.3-1.2-0.5-2.7-0.5-4.2
		V207.3z"/>
	<path d="M181.8,155.8c-0.2-0.3-0.5-0.4-0.8-0.4h-6.6c-0.4,0-0.8,0.3-0.9,0.7l-26.6,75.4c-0.1,0.3-0.1,0.6,0.1,0.9
		c0.2,0.3,0.5,0.4,0.8,0.4h6.8c0.4,0,0.8-0.3,0.9-0.7l26.4-75.4C182,156.4,182,156.1,181.8,155.8z"/>
	<path d="M227.9,191.2c-1.5,0-2.6-0.3-3.4-1c-0.8-0.7-1.3-2-1.6-3.9c-0.3-2.1-0.5-5.1-0.5-9.1v-13.9c0-5-0.1-9-0.4-12
		c-0.3-3.2-0.9-5.5-2.1-7.2c-1.1-1.7-2.9-2.9-5.3-3.4c-2.2-0.5-5.2-0.7-9.1-0.7c-0.6,0-1,0.4-1,1v6.1c0,0.6,0.4,1,1,1
		c1.7,0,3.1,0.1,4.1,0.4c0.8,0.2,1.3,0.7,1.6,1.4c0.4,0.9,0.6,2.4,0.7,4.5c0.1,2.2,0.1,5.2,0.1,8.9V179c0,5.8,0.5,9.8,1.6,12.2
		c0.8,1.8,1.9,3.1,3.4,4.1c-1.5,0.9-2.6,2.2-3.4,4c-1.1,2.5-1.6,6.5-1.6,12.4v16c0,3.7,0,6.7-0.1,9c-0.1,2.1-0.3,3.6-0.7,4.5
		c-0.3,0.7-0.8,1.2-1.5,1.4c-1,0.2-2.3,0.4-4.1,0.4c-0.6,0-1,0.4-1,1v6.2c0,0.6,0.4,1,1,1c3.8,0,6.9-0.3,9.1-0.8
		c2.4-0.6,4.1-1.7,5.3-3.5c1.1-1.7,1.8-4,2.1-7.2c0.3-3,0.4-7,0.4-12v-14.3c0-4,0.2-7.1,0.5-9.1c0.3-1.9,0.8-3.1,1.6-3.8
		c0.7-0.6,1.9-1,3.4-1c0.6,0,1-0.4,1-1v-6.2C228.9,191.7,228.4,191.2,227.9,191.2z"/>
</g>
<rect x="-220" y="107" style="fill:none;" width="3" height="1"/>
</svg>
