<?xml version="1.0" encoding="utf-8"?>
<!-- Generator: Adobe Illustrator 24.2.3, SVG Export Plug-In . SVG Version: 6.00 Build 0)  -->
<svg version="1.1" id="Layer_1" xmlns="http://www.w3.org/2000/svg" xmlns:xlink="http://www.w3.org/1999/xlink" x="0px" y="0px"
	 viewBox="0 0 330 400" style="enable-background:new 0 0 330 400;" xml:space="preserve">
<style type="text/css">
	.st0{stroke:#000000;stroke-width:5;stroke-miterlimit:10;}
	.st1{font-family:'JandaQuirkygirl';}
	.st2{font-size:111.1813px;}
</style>
<g id="ULkYWe.tif">
	<g>
		<path d="M143.1,377.9c-5.3-0.4-10.6-0.9-15.9-1.2c-24.5-1.5-48.7-5.3-72.7-10.6c-3.7-0.8-5.6-2.8-6.1-6.5
			c-3.5-25.3-7.1-36.6-10.7-61.9c-1.9-13.3-3.7-26.7-5.7-40c-0.2-1.2-1.2-2.5-2.1-3.4c-26.3-24.3-21.1-65.6,10.3-82.9
			c0.9-0.5,1.8-1.1,2.9-1.7c-6.6-13.8-6.3-27.4,1.9-40.2c8.2-12.7,20.4-18.4,35.2-18.2c0-6.8-0.4-13.2,0.1-19.7
			c2.2-28.3,29.3-43.9,54.8-56.3c14.8-7.2,28.7-17.5,40.5-11.6c5.6,2.8,4.4,5.4,1.4,10.8C171,45,165.1,64.7,166.8,73
			c1.7,8.2,6.7,13.5,14.7,16.2c11.1,3.7,22.4,7,33.2,11.3c6.3,2.5,11.8,6.8,17.8,10.1c1.3,0.7,3,1.1,4.4,0.9
			c24.8-3,46.2,15.9,45.4,40.7c-0.2,5.9-2.2,11.7-3.4,17.2c4.8,3.9,10.4,7.5,15,12.2c19.7,20.2,18.4,53.2-2.3,72.3
			c-1.4,1.3-2.5,3.4-2.8,5.2c-5.5,38.1-10.8,62.1-16.2,100.2c-0.7,4.7-1.9,5.9-6.5,6.9c-27.9,6.3-56.2,10.2-84.9,11.3
			c-1.1,0-2.3,0.4-3.4,0.5C166.4,377.9,154.8,377.9,143.1,377.9z M110,125c6,4,1,15-8,9s-10.8-7.5-10.8-7.5
			c-9-5.3-17.9-5.6-26.7-0.4c-9.6,5.6-14.6,14.1-14.6,25.3c0,6,2,11.4,5.3,16.3c3.7,5.5,2.7,8.4-3.5,10.8c-1.2,0.5-2.4,0.9-3.6,1.4
			c-20.3,8.1-29.8,34.9-19.6,54.2c11.4,21.9,38.7,28.2,57.8,15.2c5.2-3.5,6.3-2.9,11.3,1c6.5,5.2,13,10.7,20.3,14.6
			c35.4,18.5,76.1,12.7,105.4-14.2c5.2-4.7,6.1-4.8,12.1-1.1c13.5,8.4,27.5,8.9,41.3,1.1c14.3-8.2,21.2-21.1,19.9-37.5
			c-1.2-15.5-26.2-33.2-27-32.5c0,0-25.6,22.3-31.6,19.3s-4.7-9.4-1.4-10.2c3.4-0.8,15.7-7,25.9-19.1c11-12.9,11.5-27.3,1-39
			c-7.1-7.9-16.1-10.7-26.5-8.8c-3.1,0.6-6.1,1.4-8.8-1.2c-5.8-5.7-13-9.4-20.6-12.1c-10.2-3.6-20.5-6.7-30.7-10.2
			c-14.8-5-24.2-20.4-21.3-35.7c0.9-5,9.6-24.5,11.3-29.7c-7-1-19,7-30.6,12.5c-27.1,12.9-50.8,33.8-44.3,63.1
			c0.9,3.9,2.8,6.2,6.1,8.1C98.2,117.7,104,121,110,125z M101.4,362.9c-0.1-2.7-0.2-4.8-0.3-6.8c-1.8-26.9-3.6-39.8-5.4-66.7
			c-0.6-8.3-1-16.7-1.7-25c-0.3-3.9-2.2-4.9-5.5-3.3c-3.6,1.7-7.2,3.2-10.9,4.4c-2.1,0.7-2.7,1.3-2.4,3.6c1.8,17.7,3.5,35.4,5.3,53
			c1.6,16.6,3.3,19.3,5,35.9c0.1,1.1,1.2,2.8,2.1,2.9C91.9,361.7,96.4,362.2,101.4,362.9z M219.7,362.9c4.5-0.6,8.5-1.4,12.6-1.7
			c2.5-0.2,3.3-1.2,3.6-3.6c3.3-34.3,6.7-54.7,10.2-89c0.2-1.9-0.3-2.5-2.1-3.1c-3.7-1.2-7.4-2.7-11-4.3c-3.6-1.7-5.4-0.9-5.8,3.2
			c-0.5,5.1-0.7,10.2-1,15.3c-1.5,23.1-3.1,32.1-4.6,55.2C220.9,344,220.4,353.1,219.7,362.9z M74.1,358.6c-0.1-1.8-0.2-3.2-0.3-4.5
			c-2-20.3-4-26.7-6.1-47c-1.2-12.3-2.4-24.5-3.7-36.8c-0.1-1-0.9-2.7-1.6-2.9c-5.9-1.2-11.9-2.2-18-3.2c0,0.2,0,0.7,0.1,1.1
			c2.5,17.7,4.9,35.4,7.4,53.1c2.2,16,4.5,18,6.8,33.9c0.2,1.2,0.9,3,1.7,3.3C64.9,356.9,69.3,357.6,74.1,358.6z M105.7,271.4
			c0,0.7,0,1.2,0,1.6c1.3,20,2.7,26.1,4,46.1c0.9,14.1,1.8,28.3,2.9,42.4c0.1,0.9,0.8,2.6,1.4,2.6c4.7,0.6,9.3,0.9,13.8,1.2
			c0-5.2,0.1-9.8,0-14.4c-0.9-27.4-1.8-40.8-2.8-68.2c0-1-0.5-2.5-1.2-2.8C117.9,277.1,111.9,274.4,105.7,271.4z M193.2,365.5
			c4.5-0.4,8.9-0.6,13.3-1.1c0.8-0.1,1.9-1.5,2-2.5c0.5-4.1,0.6-8.3,0.9-12.5c1.5-23.1,3.1-32.1,4.6-55.2c0.5-7.6,1-15.1,1.4-22.8
			c-5.5,2.7-10.7,5.3-16,7.6c-2.4,1-3.4,2.2-3.5,5c-0.8,28.9-1.8,43.8-2.8,72.7C193.1,359.4,193.2,362.2,193.2,365.5z M276.8,264
			c-5.3,1.1-10.2,2.5-15.1,2.9c-3.5,0.3-4.6,1.4-4.9,4.9c-2.6,27.5-5.4,41-8.1,68.6c-0.6,6-1.1,12-1.7,18.3
			c4.1-0.8,7.7-1.8,11.4-2.2c2.8-0.4,3.8-1.6,4.1-4.4c3-22.3,6.2-30.6,9.4-52.9C273.6,287.4,275.2,275.6,276.8,264z M154.8,366.3
			c0-31.2,0-48.3,0-79.5c-6.2-0.9-12.2-1.7-18.4-2.6c1.1,32.2,2.1,49.9,3.2,82.1C144.8,366.3,149.6,366.3,154.8,366.3z M166.5,286.8
			c0,31.4,0,48.6,0,80c5.2-0.2,10.1-0.4,15.2-0.7c1.1-32.2,2.1-50,3.2-81.9C178.5,285.1,172.6,285.9,166.5,286.8z"/>
	</g>
</g>
<text transform="matrix(1 0 0 1 103.335 231.792)" class="st0 st1 st2">{%}</text>
</svg>
