<?xml version="1.0" encoding="utf-8"?>
<!-- Generator: Adobe Illustrator 24.2.3, SVG Export Plug-In . SVG Version: 6.00 Build 0)  -->
<svg version="1.1" id="Layer_1" xmlns="http://www.w3.org/2000/svg" xmlns:xlink="http://www.w3.org/1999/xlink" x="0px" y="0px"
	 viewBox="0 0 473 465" style="enable-background:new 0 0 473 465;" xml:space="preserve">
<style type="text/css">
	.st0{fill:#FFFFFF;}
</style>
<g>
	<path class="st0" d="M33.6,106c-2.7,1.4-3.6,4.9-1.9,7.3c1.7,2.4,4.8,3.4,7,2.2s3.2-4.2,2-7.1C39.6,105.8,36.4,104.6,33.6,106z"/>
	<path class="st0" d="M125.9,53.7c0.3,1.7,1.9,2.9,3.4,2.7c1.5-0.2,2.7-1.7,2.5-3.6c-0.2-1.9-1.7-3.1-3.6-2.9
		C126.8,50.1,125.4,51.8,125.9,53.7z"/>
	<path class="st0" d="M207.2,41.7c-1.2-0.2-2.2,0.8-2.2,2.2c0,1.4,0.8,2.2,2,2.4c1,0,2.2-0.8,2.2-2.2
		C209.2,42.7,208.4,41.5,207.2,41.7z"/>
	<path class="st0" d="M224.7-14.8c-0.8-0.2-1.9,0.5-2,1.4c-0.2,0.8,0.5,1.9,1.2,2.2c0.8,0.2,1.7-0.3,2-1.4S225.7-14.5,224.7-14.8z"
		/>
	<path class="st0" d="M317.7,72.7c-0.7-0.3-1.4,0-1.7,0.7c-0.3,0.7,0,1.4,0.7,1.7c0.5,0.2,1.4,0,1.7-0.7
		C318.7,73.7,318.3,73.1,317.7,72.7z"/>
	<path class="st0" d="M227.1,248.8c-0.3,0.3-0.2,0.8,0.3,1c0.3,0.3,0.8,0.2,1-0.3c0.3-0.3,0.2-0.8-0.3-1
		C227.9,248.3,227.4,248.5,227.1,248.8z"/>
	<ellipse class="st0" cx="265.7" cy="272.2" rx="0.5" ry="0.5"/>
	<path class="st0" d="M106.8,272.1c3.9,1.5,8.3-0.5,9.5-4.4c1.2-3.9-0.5-8-3.9-9.3c-3.4-1.4-7.5,0.3-9.3,3.9
		C101.3,266,102.9,270.5,106.8,272.1z"/>
	<path class="st0" d="M62.7,345.7c-2.5-1.5-5.9-0.8-8,1.9c-2,2.7-1.4,6.4,1.5,8.3c2.9,1.9,6.4,0.7,8.1-2
		C65.7,350.8,65,347.4,62.7,345.7z"/>
	<path class="st0" d="M48.4,336.5c-1.5-1.5-4.4-1.4-6.1,0.3s-1.9,4.6,0,6.1c1.7,1.7,4.6,1.5,6.3-0.5
		C49.9,340.8,49.9,338.1,48.4,336.5z"/>
	<path class="st0" d="M37.2,331.1c1.4-1,1.5-2.9,0.7-4.1c-0.8-1.2-2.7-1.4-4.2-0.5c-1.4,1-1.9,2.9-0.8,4.2
		C34,332,35.8,332.1,37.2,331.1z"/>
	<path class="st0" d="M30.9,316.7c-0.5-1.2-1.9-1.5-3.1-1s-1.9,1.9-1.4,3.1c0.5,1.2,2,1.7,3.2,0.8C30.9,319.1,31.4,317.9,30.9,316.7
		z"/>
	<path class="st0" d="M26.3,306.3c-0.2-0.8-1-1.4-2-1c-0.8,0.2-1.5,1.2-1.4,2c0.2,0.8,1.4,1.4,2.2,1.2
		C25.8,308.2,26.5,307.2,26.3,306.3z"/>
	<path class="st0" d="M22.4,295.6c-0.7,0-1,0.7-1,1c0.2,0.5,0.7,1,1.2,0.8c0.5-0.2,1-0.7,0.8-1.2C23.6,296.2,23.1,295.6,22.4,295.6z
		"/>
	<path class="st0" d="M270.3,39.6c-0.3,4.1,3.1,7.8,7,7.6c4.1,0,7.3-2.9,7.8-6.4c0.2-3.6-2.5-7-6.6-7.6
		C274.6,32.7,270.7,35.6,270.3,39.6z"/>
	<path class="st0" d="M282.5,177.1c0.8-2.9-1.2-5.9-4.2-7c-3.1-1-6.4,0.7-7.3,3.9s1.4,6.4,4.4,7.1
		C278.8,181.8,281.9,179.8,282.5,177.1z"/>
	<path class="st0" d="M256.6,109.4c1-2,0-4.4-2.2-5.6c-2.2-1.2-4.8-0.3-5.9,1.9c-1,2.4,0,4.8,2.4,5.8
		C253.2,112.4,255.6,111.4,256.6,109.4z"/>
	<path class="st0" d="M231.3-84.6c1-2,0-4.4-2.2-5.6c-2.2-1.2-4.8-0.3-5.9,1.9c-1,2.4,0,4.8,2.4,5.8
		C227.9-81.9,230.5-82.7,231.3-84.6z"/>
	<path class="st0" d="M338.4,16.4c1.4,1,3.2,0.5,4.1-0.7c0.8-1.2,0.7-3.1-0.7-4.1c-1.4-1-3.2-0.8-4.2,0.5
		C336.5,13.5,336.8,15.5,338.4,16.4z"/>
	<path class="st0" d="M521.4,223.2c0.8-0.8,0.8-2.2,0-3.4c-1-1-2.4-1-3.2-0.2c-0.8,0.8-1,2.4,0,3.4
		C519.2,224.1,520.6,224.1,521.4,223.2z"/>
	<path class="st0" d="M381.5,147c0.8-0.5,0.8-1.5,0.3-2.4c-0.5-0.8-1.5-1.2-2.4-0.7c-0.8,0.5-0.8,1.5-0.3,2.4
		C379.6,147.2,380.6,147.5,381.5,147z"/>
	<path class="st0" d="M419.3,105.5c-0.2-0.5-0.8-0.8-1.4-0.7c-0.5,0.2-0.8,0.8-0.3,1.4c0.2,0.5,0.8,0.8,1.4,0.7
		C419.3,106.8,419.6,106.1,419.3,105.5z"/>
	<path class="st0" d="M261.3,471.4c-3.1-2.7-7.5-2.7-10.2-0.3c-2.5,2.5-2.7,6.8-0.2,10s7.3,3.6,10.5,0.7S264.4,474.1,261.3,471.4z"
		/>
	<path class="st0" d="M490.2,301.9c2.5,2.2,6.4,1.7,8.1-1c2-2.7,1-6.4-1.7-8.1c-2.7-1.7-6.3-1.2-8,1.2
		C487,296.3,487.7,299.7,490.2,301.9z"/>
	<path class="st0" d="M175.5,287.2c2.2,1.2,4.8,0.3,5.9-1.9c1.2-2.2,0-4.8-2.4-5.8c-2.2-0.8-4.8,0-5.8,2
		C172.4,283.4,173.4,285.8,175.5,287.2z"/>
	<path class="st0" d="M357,233.2c0.5-1.5-0.5-3.2-2.2-3.6c-1.7-0.3-3.2,0.5-3.7,2c-0.5,1.5,0.7,3.1,2.2,3.6
		C355,235.6,356.7,234.9,357,233.2z"/>
	<path class="st0" d="M235.9,340.8c1.4,0,2.5-0.8,2.7-2s-1-2.4-2.4-2.4s-2.5,0.8-2.5,2.2C233.7,339.6,234.5,340.8,235.9,340.8z"/>
	<path class="st0" d="M120,198.4c1,0,1.7-1,1.5-1.9c-0.2-0.8-0.8-1.5-2-1.4c-0.8,0.2-1.7,1-1.5,1.9
		C118.3,197.8,119.2,198.6,120,198.4z"/>
	<path class="st0" d="M286.8,219.3c0.2,0.5,0.8,0.8,1.4,0.7s1-0.7,0.8-1.2c-0.2-0.5-0.8-0.8-1.4-0.7
		C287,218.5,286.6,218.8,286.8,219.3z"/>
	<path class="st0" d="M22.3,286.7c-0.3,0-0.7,0.3-0.7,0.7c0,0.3,0.3,0.7,0.7,0.7c0.3,0,0.7-0.3,0.7-0.7
		C23,287,22.6,286.7,22.3,286.7z"/>
	<path class="st0" d="M240.3,546.4c-2.5,1.5-3.7,4.4-2.5,7c1,2.4,4.1,3.4,6.8,2.4c2.7-1,4.2-4.2,2.9-7
		C246.2,545.9,242.8,544.9,240.3,546.4z"/>
	<path class="st0" d="M318.8,409.2c-1.4-2-4.1-2.4-5.9-0.8c-1.9,1.5-2.4,4.1-1,5.8s3.9,2.2,5.9,0.8
		C319.5,413.9,320.2,411.2,318.8,409.2z"/>
	<path class="st0" d="M155,443.4c-1,1.4-1.2,3.2,0,4.4c1.2,1.2,3.1,1,4.4,0c1.2-1.2,1.5-3.2,0.2-4.6
		C158.2,441.9,156.3,442.1,155,443.4z"/>
	<path class="st0" d="M377,317.4c-0.7,1-0.3,2.4,0.5,2.9c1,0.7,2.4,0.3,3.1-0.7c0.7-1,0.7-2.4-0.3-3.1
		C379.1,316,377.7,316.3,377,317.4z"/>
	<path class="st0" d="M158,201.1c-0.8-0.5-1.9,0.2-2.2,0.8c-0.3,1,0,2,0.8,2.2c0.7,0.3,1.7,0,2.2-0.8
		C159.2,202.7,158.9,201.7,158,201.1z"/>
	<path class="st0" d="M86.9,297.3c-0.5-0.2-1.4,0.3-1.4,1c0,0.7,0.3,1.4,0.8,1.5c0.5,0.2,1.4-0.3,1.4-1
		C87.9,298,87.6,297.3,86.9,297.3z"/>
	<path class="st0" d="M199.7,374.9c0.3,0,0.7-0.3,0.7-0.7c0-0.3-0.2-0.8-0.7-0.7c-0.3,0-0.7,0.3-0.7,0.7
		C198.9,374.4,199.2,374.7,199.7,374.9z"/>
	
		<ellipse transform="matrix(0.9983 -5.890449e-02 5.890449e-02 0.9983 -21.7014 12.0055)" class="st0" cx="192.8" cy="374.1" rx="0.5" ry="0.5"/>
</g>
</svg>
