<?xml version="1.0" encoding="utf-8"?>
<!-- Generator: Adobe Illustrator 24.2.3, SVG Export Plug-In . SVG Version: 6.00 Build 0)  -->
<svg version="1.1" id="Layer_1" xmlns="http://www.w3.org/2000/svg" xmlns:xlink="http://www.w3.org/1999/xlink" x="0px" y="0px"
	 viewBox="0 0 200 200" style="enable-background:new 0 0 200 200;" xml:space="preserve">
<style type="text/css">
	.st0{fill:#F5F1E3;}
</style>
<g>
	<path class="st0" d="M196.7,73.7c0.4-1.2-0.4-2.5-1.6-2.7c-1.2-0.2-2.4,0.4-2.7,1.4c-0.3,1,0.3,2.2,1.5,2.7
		C195,75.5,196.3,74.9,196.7,73.7z"/>
	<path class="st0" d="M184.9,116.3c-0.6-0.4-1.4-0.3-1.8,0.2c-0.4,0.5-0.3,1.3,0.3,1.8c0.6,0.5,1.4,0.4,1.9-0.2
		C185.7,117.6,185.6,116.7,184.9,116.3z"/>
	<path class="st0" d="M164.5,143.8c0.4-0.3,0.4-0.9,0-1.3c-0.4-0.4-0.9-0.4-1.3-0.1c-0.3,0.3-0.4,0.9,0,1.3
		C163.6,144.1,164.2,144.2,164.5,143.8z"/>
	<path class="st0" d="M176,165.6c0.3-0.2,0.4-0.7,0.2-1c-0.2-0.3-0.7-0.4-1-0.3c-0.3,0.2-0.4,0.6-0.2,1
		C175.2,165.7,175.6,165.8,176,165.6z"/>
	<path class="st0" d="M122.8,167.2c0.3-0.1,0.4-0.4,0.3-0.7c-0.1-0.3-0.4-0.4-0.7-0.3c-0.2,0.1-0.4,0.4-0.3,0.7
		C122.2,167.2,122.5,167.3,122.8,167.2z"/>
	<path class="st0" d="M97.6,88.6c0-0.2-0.2-0.3-0.4-0.2c-0.2,0-0.3,0.2-0.2,0.4c0,0.2,0.2,0.3,0.4,0.2C97.5,89,97.6,88.8,97.6,88.6z
		"/>
	<ellipse transform="matrix(0.995 -0.1002 0.1002 0.995 -8.9321 8.4139)" class="st0" cx="79.3" cy="93.1" rx="0.2" ry="0.2"/>
	<path class="st0" d="M126.2,46.3c-1.6,0.7-2.3,2.6-1.5,4.1c0.8,1.5,2.5,2.2,3.9,1.6c1.4-0.6,2.1-2.3,1.6-3.9
		C129.6,46.5,127.8,45.6,126.2,46.3z"/>
	<path class="st0" d="M117.5,11.6c1.2-0.3,2-1.5,1.8-2.9c-0.2-1.4-1.5-2.3-2.9-2c-1.4,0.3-2.1,1.7-1.8,3
		C115.1,11,116.3,11.8,117.5,11.6z"/>
	<path class="st0" d="M124.4,10.1c0.9,0,1.7-0.9,1.7-1.9c0-1-0.8-1.9-1.8-1.8c-1,0-1.8,0.9-1.7,2C122.7,9.3,123.5,10.1,124.4,10.1z"
		/>
	<path class="st0" d="M129.3,8.4c-0.1,0.7,0.4,1.3,1,1.4c0.6,0.1,1.2-0.4,1.4-1.1c0.1-0.7-0.3-1.4-1-1.5
		C130,7.2,129.4,7.7,129.3,8.4z"/>
	<path class="st0" d="M135.4,10.8c0.5,0.2,1-0.1,1.2-0.6c0.2-0.5,0-1.1-0.5-1.3c-0.5-0.2-1.1,0.1-1.2,0.7
		C134.7,10.1,134.9,10.6,135.4,10.8z"/>
	<path class="st0" d="M139.8,12.5c0.3,0.2,0.7,0.1,0.9-0.3c0.2-0.3,0.1-0.8-0.2-1c-0.3-0.2-0.8,0-1,0.3
		C139.4,11.8,139.5,12.3,139.8,12.5z"/>
	<path class="st0" d="M144.1,14.5c0.2-0.2,0.1-0.5,0-0.6c-0.2-0.1-0.5-0.1-0.6,0.1c-0.1,0.2-0.1,0.5,0.1,0.6
		C143.6,14.7,143.9,14.7,144.1,14.5z"/>
	<path class="st0" d="M146.5,163c-1.1-1.3-3.2-1.4-4.3-0.2c-1.2,1.2-1.3,3-0.4,4.2c1,1.1,2.8,1.3,4.2,0.3
		C147.3,166.3,147.6,164.3,146.5,163z"/>
	<path class="st0" d="M102.4,126.1c0.6,1.1,2.1,1.4,3.3,0.8c1.2-0.6,1.7-2.1,1-3.3c-0.7-1.2-2.3-1.5-3.4-0.8
		C102.1,123.6,101.8,125.1,102.4,126.1z"/>
	<path class="st0" d="M130,138.4c0.3,0.9,1.3,1.3,2.3,1c1-0.3,1.5-1.3,1.2-2.3c-0.4-1-1.4-1.4-2.4-1
		C130.1,136.5,129.7,137.5,130,138.4z"/>
	<path class="st0" d="M194.6,188.1c0.3,0.9,1.3,1.3,2.3,1c1-0.3,1.5-1.3,1.2-2.3c-0.4-1-1.4-1.4-2.4-1
		C194.8,186.3,194.3,187.3,194.6,188.1z"/>
	<path class="st0" d="M133.3,189.9c-0.7,0.1-1.1,0.8-1,1.4c0.1,0.6,0.7,1.1,1.4,1c0.7-0.1,1.2-0.7,1.1-1.4
		C134.7,190.2,134,189.7,133.3,189.9z"/>
	<path class="st0" d="M18.4,182.9c0,0.5,0.4,0.9,1,1c0.6,0,1-0.4,1-0.9c0-0.5-0.4-1-1-1C18.8,182,18.4,182.4,18.4,182.9z"/>
	<path class="st0" d="M82.1,164.1c-0.1,0.4,0.2,0.7,0.6,0.8c0.4,0.1,0.8-0.1,0.9-0.5c0.1-0.4-0.2-0.7-0.6-0.8
		C82.6,163.5,82.2,163.7,82.1,164.1z"/>
	<path class="st0" d="M83.2,187.5c0.2,0.1,0.5,0,0.6-0.2c0.1-0.2,0-0.5-0.3-0.5c-0.2-0.1-0.5,0-0.6,0.2
		C82.8,187.1,82.9,187.4,83.2,187.5z"/>
	<path class="st0" d="M21.9,33.1c1.7-0.1,3-1.4,3.1-2.9c0-1.5-1.2-2.8-2.9-3c-1.7-0.2-3.2,1.1-3.3,2.9
		C18.7,31.9,20.2,33.2,21.9,33.1z"/>
	<path class="st0" d="M4.4,150.5c-1.4,0.1-2.4,1.4-2.1,2.7c0.2,1.4,1.6,2.2,2.9,1.9c1.3-0.3,2.2-1.5,2-2.7
		C7,151.2,5.8,150.4,4.4,150.5z"/>
	<path class="st0" d="M101.5,62.1c-1,0.3-1.5,1.3-1.2,2.3c0.3,1,1.4,1.4,2.4,1c0.9-0.4,1.4-1.4,1.1-2.3
		C103.5,62.3,102.5,61.9,101.5,62.1z"/>
	<path class="st0" d="M63.9,131.5c0.3,0.6,1.1,0.8,1.7,0.4c0.6-0.4,0.8-1.1,0.5-1.7c-0.3-0.6-1.1-0.7-1.7-0.4
		C63.8,130.2,63.5,130.9,63.9,131.5z"/>
	<path class="st0" d="M67.9,64.1c-0.4,0.4-0.5,1-0.2,1.4c0.3,0.4,1,0.4,1.4,0c0.4-0.4,0.5-1,0.1-1.4C68.9,63.8,68.3,63.7,67.9,64.1z
		"/>
	<path class="st0" d="M144,71.9c-0.3,0.3-0.2,0.8,0.1,1c0.3,0.2,0.7,0.2,1-0.2c0.2-0.3,0.2-0.8-0.1-1
		C144.7,71.6,144.2,71.6,144,71.9z"/>
	<path class="st0" d="M88.7,114.9c-0.2-0.1-0.5,0-0.6,0.2c-0.1,0.2-0.1,0.5,0.1,0.6c0.2,0.1,0.5,0,0.6-0.2
		C88.9,115.2,88.9,115,88.7,114.9z"/>
	<path class="st0" d="M146.8,17.1c0.1-0.1,0.1-0.3,0-0.4c-0.1-0.1-0.3-0.1-0.4,0c-0.1,0.1-0.1,0.3,0,0.4
		C146.5,17.2,146.7,17.2,146.8,17.1z"/>
	<path class="st0" d="M6,4.8C6.3,3.6,5.8,2.4,4.7,2C3.7,1.6,2.5,2.2,2,3.3C1.5,4.4,2,5.8,3.2,6.2C4.4,6.7,5.7,6,6,4.8z"/>
	<path class="st0" d="M23.3,68.4c1,0.2,1.9-0.5,2-1.5c0.1-1-0.5-1.9-1.4-2c-0.9-0.1-1.8,0.5-2,1.5C21.7,67.2,22.3,68.2,23.3,68.4z"
		/>
	<path class="st0" d="M61.5,10c-0.1-0.7-0.6-1.3-1.3-1.3c-0.7,0-1.2,0.6-1.3,1.3c0,0.7,0.5,1.4,1.3,1.4C61,11.4,61.5,10.8,61.5,10z"
		/>
	<path class="st0" d="M33.2,112.6c-0.1-0.5-0.6-0.8-1-0.7c-0.5,0.1-0.8,0.6-0.7,1.1c0.1,0.5,0.5,0.9,1,0.8
		C33,113.6,33.3,113.1,33.2,112.6z"/>
	<path class="st0" d="M132,82.3c0.4-0.1,0.5-0.6,0.4-0.9c-0.2-0.4-0.6-0.6-0.9-0.4c-0.3,0.1-0.5,0.5-0.4,0.9
		C131.2,82.2,131.6,82.4,132,82.3z"/>
	<path class="st0" d="M124.6,33c0.2-0.1,0.3-0.5,0.1-0.7c-0.2-0.2-0.5-0.3-0.7-0.2c-0.2,0.1-0.3,0.5-0.1,0.7
		C124.1,33.1,124.4,33.2,124.6,33z"/>
	<path class="st0" d="M68.5,43.4c-0.1,0.1-0.1,0.3,0,0.4c0.1,0.1,0.3,0.2,0.4,0c0.1-0.1,0.1-0.3,0-0.4
		C68.9,43.3,68.7,43.3,68.5,43.4z"/>
	<ellipse transform="matrix(0.6642 -0.7475 0.7475 0.6642 -7.3405 66.8726)" class="st0" cx="70.8" cy="41.6" rx="0.2" ry="0.2"/>
</g>
</svg>
